<svg xmlns="http://www.w3.org/2000/svg" viewBox="0 0 100 100" width="512" height="512">
  <defs>
    <!-- Premium Purple Linear Gradient -->
    <linearGradient id="moviyfly-purple-gradient" x1="0%" y1="0%" x2="100%" y2="100%">
      <stop offset="0%" stop-color="#8B5CF6" />
      <stop offset="50%" stop-color="#A855F7" />
      <stop offset="100%" stop-color="#6366F1" />
    </linearGradient>
  </defs>

  <!-- Ambient Back Glow -->
  <circle cx="50" cy="50" r="32" fill="#8B5CF6" fill-opacity="0.15" />
  
  <!-- Beautiful Hand-Crafted Origami-Style Butterfly Wing Structure -->
  <!-- Left Wings -->
  <path
    d="M48 50 L22 28 C20 26 16 28 17 32 L26 56 C28 60 34 62 38 60 L48 50 Z"
    fill="url(#moviyfly-purple-gradient)"
  />
  <path
    d="M47 53 L30 68 C28 70 29 74 33 73 L44 67 C46 66 47 64 47 62 L47 53 Z"
    fill="url(#moviyfly-purple-gradient)"
    fill-opacity="0.7"
  />

  <!-- Right Wings -->
  <path
    d="M52 50 L78 28 C80 26 84 28 83 32 L74 56 C72 60 66 62 62 60 L52 50 Z"
    fill="url(#moviyfly-purple-gradient)"
  />
  <path
    d="M53 53 L70 68 C72 70 71 74 67 73 L56 67 C54 66 53 64 53 62 L53 53 Z"
    fill="url(#moviyfly-purple-gradient)"
    fill-opacity="0.7"
  />

  <!-- Central Core/Body -->
  <rect
    x="48"
    y="28"
    width="4"
    height="44"
    rx="2"
    fill="#FFFFFF"
  />
  <circle cx="50" cy="24" r="2.5" fill="#FFFFFF" />

  <!-- Minimalist Antennae -->
  <path
    d="M49 22 Q44 14 38 16"
    stroke="#C084FC"
    stroke-width="1.5"
    stroke-linecap="round"
    fill="none"
  />
  <path
    d="M51 22 Q56 14 62 16"
    stroke="#C084FC"
    stroke-width="1.5"
    stroke-linecap="round"
    fill="none"
  />
</svg>
